<svg width="25" height="24" viewBox="0 0 25 24" fill="none" xmlns="http://www.w3.org/2000/svg">
<path d="M15.5 22.75H9.5C4.07 22.75 1.75 20.43 1.75 15V9C1.75 3.57 4.07 1.25 9.5 1.25H15.5C20.93 1.25 23.25 3.57 23.25 9V15C23.25 20.43 20.93 22.75 15.5 22.75ZM9.5 2.75C4.89 2.75 3.25 4.39 3.25 9V15C3.25 19.61 4.89 21.25 9.5 21.25H15.5C20.11 21.25 21.75 19.61 21.75 15V9C21.75 4.39 20.11 2.75 15.5 2.75H9.5Z" fill="#A2A6B8"/>
<path d="M9.5 10.75C7.98 10.75 6.75 9.52 6.75 8C6.75 6.48 7.98 5.25 9.5 5.25C11.02 5.25 12.25 6.48 12.25 8C12.25 9.52 11.02 10.75 9.5 10.75ZM9.5 6.75C8.81 6.75 8.25 7.31 8.25 8C8.25 8.69 8.81 9.25 9.5 9.25C10.19 9.25 10.75 8.69 10.75 8C10.75 7.31 10.19 6.75 9.5 6.75Z" fill="#A2A6B8"/>
<path d="M3.17002 19.7C2.93002 19.7 2.69002 19.58 2.55002 19.37C2.32002 19.03 2.41002 18.56 2.76002 18.33L7.69002 15.02C8.77002 14.29 10.26 14.38 11.24 15.21L11.57 15.5C12.07 15.93 12.92 15.93 13.41 15.5L17.57 11.93C18.63 11.02 20.3 11.02 21.37 11.93L23 13.33C23.31 13.6 23.35 14.07 23.08 14.39C22.81 14.7 22.34 14.74 22.02 14.47L20.39 13.07C19.89 12.64 19.04 12.64 18.54 13.07L14.38 16.64C13.32 17.55 11.65 17.55 10.58 16.64L10.25 16.35C9.79002 15.96 9.03002 15.92 8.52002 16.27L3.59002 19.58C3.46002 19.66 3.31002 19.7 3.17002 19.7Z" fill="#A2A6B8"/>
</svg>
