<svg width="232" height="217" viewBox="0 0 232 217" fill="none" xmlns="http://www.w3.org/2000/svg">
<path d="M219.52 196.306C219.521 196.664 219.618 197.015 219.801 197.323L229.703 213.978C230.496 215.311 229.535 217 227.984 217H4.06295C2.50177 217 1.54253 215.291 2.35559 213.958L12.6775 197.039C12.8689 196.725 12.9701 196.365 12.9701 195.998V178.46C12.9701 177.756 13.3404 177.104 13.9449 176.743L30.7131 166.732C30.9975 166.562 31.2352 166.324 31.405 166.04L67.908 104.909C68.2911 104.267 68.2846 103.466 67.8912 102.83L59.3545 89.0451C59.0917 88.6207 58.6796 88.3099 58.1993 88.1738L29.9998 80.1839C28.6827 79.8107 28.1214 78.2543 28.8971 77.1264L40.4404 60.3416C40.8862 59.6934 40.9106 58.8441 40.5028 58.1714L36.1718 51.0278C35.9985 50.7419 35.7562 50.504 35.4673 50.3359L17.7307 40.0175C17.1151 39.6593 16.7364 39.0009 16.7364 38.2887V20.1542C16.7364 19.7617 16.6209 19.378 16.4044 19.0506L5.85354 3.10356C4.97388 1.774 5.92731 0 7.52152 0H223.225C224.77 0 225.732 1.67703 224.951 3.01032L215.009 19.9969C214.829 20.3034 214.735 20.6521 214.735 21.0072V38.2369C214.735 38.9419 214.363 39.5948 213.758 39.9554L196.944 49.9651C196.666 50.1308 196.432 50.3615 196.263 50.6375L164.044 103.134C163.652 103.773 163.65 104.577 164.038 105.217L178.805 129.571C179.068 130.003 179.484 130.321 179.971 130.458L207.223 138.167C208.534 138.538 209.099 140.083 208.335 141.212L197.187 157.698C196.75 158.344 196.729 159.185 197.132 159.853L200.527 165.471C200.692 165.744 200.92 165.974 201.192 166.141L218.52 176.774C219.111 177.136 219.472 177.78 219.474 178.473L219.52 196.306ZM151.38 199.557C151.736 200.182 152.4 200.568 153.118 200.568H192.606C193.711 200.568 194.606 199.672 194.606 198.568V185.582C194.606 184.881 194.24 184.232 193.64 183.87L181.024 176.251C180.845 176.143 180.64 176.086 180.431 176.086C180.028 176.086 179.654 175.874 179.447 175.528L169.894 159.517C169.494 158.846 169.521 158.003 169.964 157.359L175.349 149.524C176.118 148.404 175.571 146.859 174.267 146.474L160.869 142.512C160.394 142.371 159.987 142.059 159.729 141.636L137.29 104.91C136.898 104.268 136.899 103.461 137.292 102.821L175.218 41.0428C175.385 40.7705 175.615 40.5422 175.889 40.3771L188.362 32.845C188.962 32.4829 189.328 31.8335 189.328 31.133V17.8294C189.328 16.7248 188.433 15.8294 187.328 15.8294H122.793C121.688 15.8294 120.793 16.7248 120.793 17.8294V31.1276C120.793 31.831 121.162 32.4827 121.766 32.8439L132.071 39.0096C133.001 39.566 133.318 40.7618 132.787 41.7063L118.219 67.607C117.457 68.963 115.506 68.9673 114.737 67.6147L85.8846 16.8412C85.5292 16.2158 84.8652 15.8294 84.1457 15.8294H44.2057C43.1011 15.8294 42.2057 16.7248 42.2057 17.8294V31.133C42.2057 31.8335 42.5722 32.4829 43.1719 32.845L55.79 40.4645C55.9676 40.5717 56.1711 40.6284 56.3785 40.6284C56.7761 40.6284 57.1448 40.8357 57.3514 41.1754L67.8347 58.4123C68.2499 59.095 68.219 59.9593 67.756 60.6105L61.9898 68.7207C61.1952 69.8383 61.7355 71.406 63.0501 71.7967L77.9361 76.2209C78.043 76.2527 78.1585 76.2361 78.2522 76.1755C78.4333 76.0584 78.6754 76.1144 78.7867 76.2991L94.7677 102.837C95.1486 103.469 95.1501 104.26 94.7715 104.894L52.422 175.811C52.3199 175.982 52.1354 176.086 51.9363 176.086C51.8332 176.086 51.7321 176.115 51.6439 176.168L38.8892 183.87C38.2895 184.232 37.923 184.881 37.923 185.582V198.568C37.923 199.672 38.8185 200.568 39.923 200.568H105.857C106.961 200.568 107.857 199.672 107.857 198.568V185.585C107.857 184.883 107.488 184.232 106.886 183.871L96.1279 177.409C95.1922 176.847 94.8799 175.638 95.4262 174.693L114.74 141.286C115.513 139.949 117.446 139.956 118.21 141.298L151.38 199.557Z" fill="white"/>
</svg>
