<?xml version="1.0" encoding="utf-8"?>
<!-- Generator: Adobe Illustrator 26.0.2, SVG Export Plug-In . SVG Version: 6.00 Build 0)  -->
<svg version="1.1" xmlns="http://www.w3.org/2000/svg" xmlns:xlink="http://www.w3.org/1999/xlink" x="0px" y="0px"
	 viewBox="0 0 60 60" style="enable-background:new 0 0 60 60;" xml:space="preserve">
<style type="text/css">
	.st0{fill:#40E5B4;}
	.st1{fill:#3896EF;}
	.st2{fill:#FEFEFE;}
	.st3{fill:#6B8CEF;}
	.st4{fill:#1D1D1D;}
	.st5{fill:#4C4C4C;}
	.st6{fill:#7986CB;}
	.st7{fill:#5C6BC0;}
	.st8{fill:#9EA7D9;}
	.st9{fill:#D99EBB;}
	.st10{fill:#CB79A1;}
	.st11{fill:#C05C8C;}
	.st12{fill:#6A6A6A;}
	.st13{fill:#FFFFFF;}
	.st14{fill:#40E3B2;}
	.st15{fill:#83EDCE;}
	.st16{fill:#B0F3DF;}
	.st17{fill:#BCF5E4;}
	.st18{fill:#C1F6E6;}
	.st19{fill:#D3F8ED;}
	.st20{fill:none;stroke:#40E3B2;stroke-width:6.6667;stroke-linecap:round;stroke-linejoin:round;stroke-miterlimit:10;}
	.st21{fill:#E55F40;}
	.st22{fill:#40E55B;}
	.st23{fill:none;stroke:#40E55B;stroke-width:8;stroke-miterlimit:10;}
	.st24{fill:none;stroke:#4C4C4C;stroke-width:8;stroke-miterlimit:10;}
	.st25{fill:none;stroke:#40E3B2;stroke-width:4;stroke-miterlimit:10;}
	.st26{fill:#F3BA2F;}
	.st27{clip-path:url(#SVGID_00000051370634180083405810000012474021756892616882_);}
	.st28{fill:none;}
	.st29{fill:none;stroke:#FFFFFF;stroke-width:4;stroke-miterlimit:10;}
	.st30{opacity:0.5;fill:#1D1D1D;}
	.st31{fill:none;stroke:#E5409D;stroke-width:4;stroke-linecap:round;stroke-linejoin:round;stroke-miterlimit:10;}
	.st32{fill:none;stroke:#6A6A6A;stroke-width:4;stroke-linecap:round;stroke-linejoin:round;stroke-miterlimit:10;}
</style>
<g id="ico-information-28x28">
</g>
<g id="ico-verified-80x80">
</g>
<g id="ico-ethereum-60x60">
</g>
<g id="ico-weth-60x60">
</g>
<g id="ico-search-32x32">
</g>
<g id="ico-close-grey-24x24">
</g>
<g id="ico-close-white-24x24">
</g>
<g id="ico-twitter-80x80">
</g>
<g id="ico-ellipsis-80x80">
</g>
<g id="ico-discord-80x80">
</g>
<g id="ico-medium-80x80">
</g>
<g id="ico-settings-34x34">
</g>
<g id="ico-share-link-60x60">
</g>
<g id="ico-error-56x56">
</g>
<g id="ico-success-56x56">
</g>
<g id="ico-convert-56x56">
</g>
<g id="ico-info-56x56">
</g>
<g id="ico-ethtoweth-80x80">
</g>
<g id="ico-binance-60x60">
	<g>
		<circle class="st4" cx="30" cy="30" r="28"/>
		<g>
			<path class="st5" d="M30,4c14.34,0,26,11.66,26,26S44.34,56,30,56S4,44.34,4,30S15.66,4,30,4 M30,0C13.43,0,0,13.43,0,30
				s13.43,30,30,30c16.57,0,30-13.43,30-30S46.57,0,30,0L30,0z"/>
		</g>
	</g>
</g>
<g id="ico-fantom-60x60">
</g>
<g id="ico-blockchain-60x60">
	<path id="binancedex_00000096037445689364239200000002615050786837175218_" class="st26" d="M33.85,43.22v4.48L29.94,50l-3.79-2.3
		v-4.48l3.79,2.3L33.85,43.22z M12.93,27.7l3.79,2.3v7.7l6.55,3.91v4.48L12.93,40V27.7z M46.95,27.7V40l-10.46,6.09v-4.48l6.55-3.91
		V30L46.95,27.7z M36.49,21.61l3.91,2.3l0,0v4.48l-6.55,3.91v7.82l-3.79,2.3l-3.79-2.3V32.3l-6.78-3.91v-4.48l3.91-2.3l6.55,3.91
		L36.49,21.61z M19.48,31.61l3.79,2.3v4.48l-3.79-2.3V31.61z M40.4,31.61v4.48l-3.79,2.3v-4.48L40.4,31.61z M16.72,17.7l3.91,2.3
		l-3.91,2.3v4.48l-3.79-2.3V20L16.72,17.7z M43.16,17.7l3.91,2.3v4.48l-3.91,2.3V22.3L39.37,20L43.16,17.7z M29.94,17.7l3.91,2.3
		l-3.91,2.3L26.15,20L29.94,17.7z M29.94,10l10.46,6.09l-3.79,2.3l-6.55-3.91l-6.67,3.91l-3.79-2.3L29.94,10z"/>
</g>
<g id="ico-mobile-hamburger-80x80">
</g>
<g id="ico-mobile-search-80x80">
</g>
<g id="ico-share-fb-60x60">
</g>
<g id="ico-share-telegram-60x60">
</g>
<g id="ico-share-email-60x60">
</g>
<g id="ico-share-link-60x60_00000053544304605215854160000004057320576619506324_">
</g>
<g id="ico-share-twitter-60x60">
</g>
<g id="ico-favourite-pink-32x32">
</g>
<g id="ico-favourite-grey-32x32">
</g>
</svg>
