<?xml version="1.0" encoding="utf-8"?>
<!-- Generator: Adobe Illustrator 26.0.2, SVG Export Plug-In . SVG Version: 6.00 Build 0)  -->
<svg version="1.1" xmlns="http://www.w3.org/2000/svg" xmlns:xlink="http://www.w3.org/1999/xlink" x="0px" y="0px"
	 viewBox="0 0 60 60" style="enable-background:new 0 0 60 60;" xml:space="preserve">
<style type="text/css">
	.st0{fill:#1D1D1D;}
	.st1{fill:#4C4C4C;}
	.st2{fill:#F5AC37;}
	.st3{fill:#FEFEFD;}
	.st4{fill:#2775CA;}
	.st5{fill:#FFFFFF;}
	.st6{fill:#52D9F6;}
	.st7{fill:#F3BA2F;}
	.st8{fill:#D99EBB;}
	.st9{fill:#CB79A1;}
	.st10{fill:#C05C8C;}
	.st11{fill:#7986CB;}
	.st12{fill:#5C6BC0;}
	.st13{fill:#9EA7D9;}
	.st14{fill:none;stroke:#4C4C4C;stroke-width:4;stroke-miterlimit:10;}
	.st15{fill:#40E55B;}
	.st16{fill:none;stroke:#40E55B;stroke-width:8;stroke-miterlimit:10;}
	.st17{fill:#E5409D;}
	.st18{fill:none;stroke:#E5409D;stroke-width:1.7143;stroke-miterlimit:10;}
	.st19{fill:#6A6A6A;}
	.st20{fill:none;stroke:#52D9F6;stroke-width:0.5163;stroke-miterlimit:10;}
	.st21{fill:none;stroke:#52D9F6;stroke-width:4;stroke-miterlimit:10;}
	.st22{fill:none;}
	.st23{fill:#00FF00;}
	.st24{fill:none;stroke:#1D1D1D;stroke-width:2.7081;stroke-miterlimit:10;}
	.st25{fill:#3896EF;}
	.st26{fill:#FEFEFE;}
	.st27{fill:none;stroke:#52D9F6;stroke-width:6.6667;stroke-linecap:round;stroke-linejoin:round;stroke-miterlimit:10;}
	.st28{fill:#E55F40;}
	.st29{fill:none;stroke:#4C4C4C;stroke-width:8;stroke-miterlimit:10;}
	.st30{clip-path:url(#SVGID_00000146472595139213892670000010176187291580030142_);fill:#4C4C4C;}
	.st31{fill:none;stroke:#F3BA2F;stroke-width:2.2;stroke-linecap:round;stroke-linejoin:round;stroke-miterlimit:10;}
	.st32{fill:none;stroke:#F3BA2F;stroke-width:1.7;stroke-linejoin:round;stroke-miterlimit:10;}
	.st33{fill:none;stroke:#FFFFFF;stroke-width:2.2;stroke-linecap:round;stroke-linejoin:round;stroke-miterlimit:10;}
	.st34{fill:none;stroke:#FFFFFF;stroke-width:1.7;stroke-linejoin:round;stroke-miterlimit:10;}
	.st35{fill:none;stroke:#FFFFFF;stroke-width:4;stroke-miterlimit:10;}
	.st36{opacity:0.5;fill:#1D1D1D;}
	.st37{fill:#83EDCE;}
	.st38{fill:#B0F3DF;}
	.st39{fill:#BCF5E4;}
	.st40{fill:#C1F6E6;}
	.st41{fill:#D3F8ED;}
	.st42{fill:none;stroke:#E5409D;stroke-width:4;stroke-linecap:round;stroke-linejoin:round;stroke-miterlimit:10;}
	.st43{fill:none;stroke:#6A6A6A;stroke-width:4;stroke-linecap:round;stroke-linejoin:round;stroke-miterlimit:10;}
</style>
<g id="ico-DAI-60x60">
	<g>
		<circle class="st0" cx="30" cy="30" r="28"/>
		<g>
			<path class="st1" d="M30,4c14.34,0,26,11.66,26,26S44.34,56,30,56S4,44.34,4,30S15.66,4,30,4 M30,0C13.43,0,0,13.43,0,30
				s13.43,30,30,30c16.57,0,30-13.43,30-30S46.57,0,30,0L30,0z"/>
		</g>
	</g>
	<g id="Layer_x0020_1_00000136377286038039726420000004262686605094144443_">
		<path class="st2" d="M30.96,31.84h9.88c0.21,0,0.31,0,0.33-0.28c0.08-1.01,0.08-2.02,0-3.02c0-0.2-0.1-0.28-0.31-0.28H21.19
			c-0.24,0-0.31,0.08-0.31,0.31v2.89c0,0.37,0,0.37,0.39,0.37H30.96L30.96,31.84z M40.06,24.88c0.03-0.07,0.03-0.15,0-0.23
			c-0.16-0.36-0.36-0.7-0.59-1.02c-0.34-0.55-0.74-1.06-1.2-1.51c-0.22-0.27-0.47-0.52-0.75-0.73c-1.41-1.2-3.08-2.04-4.88-2.47
			c-0.91-0.2-1.83-0.3-2.76-0.29h-8.73c-0.24,0-0.28,0.1-0.28,0.31v5.77c0,0.24,0,0.31,0.31,0.31h18.75c0,0,0.16-0.03,0.2-0.13
			H40.06L40.06,24.88z M40.06,35.22c-0.28-0.03-0.55-0.03-0.83,0H21.21c-0.24,0-0.33,0-0.33,0.33v5.64c0,0.26,0,0.33,0.33,0.33h8.32
			c0.4,0.03,0.8,0,1.19-0.08c1.21-0.09,2.4-0.35,3.53-0.78c0.41-0.14,0.81-0.33,1.19-0.55h0.11c1.95-1.01,3.53-2.61,4.53-4.56
			C40.07,35.53,40.19,35.28,40.06,35.22L40.06,35.22z M17.62,44.43v-0.1v-3.79v-1.28v-3.82c0-0.21,0-0.24-0.26-0.24h-3.53
			c-0.2,0-0.28,0-0.28-0.26v-3.09h3.77c0.21,0,0.29,0,0.29-0.28v-3.05c0-0.2,0-0.24-0.26-0.24h-3.53c-0.2,0-0.28,0-0.28-0.26v-2.86
			c0-0.18,0-0.23,0.26-0.23h3.49c0.24,0,0.31,0,0.31-0.31v-8.76c0-0.26,0-0.33,0.33-0.33h12.19c0.88,0.04,1.76,0.13,2.63,0.29
			c1.79,0.33,3.51,0.97,5.09,1.88c1.04,0.61,2,1.36,2.86,2.21c0.64,0.67,1.22,1.39,1.74,2.16c0.51,0.78,0.94,1.61,1.27,2.49
			c0.04,0.23,0.26,0.38,0.49,0.34h2.91c0.37,0,0.37,0,0.39,0.36v2.67c0,0.26-0.1,0.33-0.36,0.33H44.9c-0.23,0-0.29,0-0.28,0.29
			c0.09,0.99,0.09,1.98,0,2.97c0,0.28,0,0.31,0.31,0.31h2.57c0.11,0.15,0,0.29,0,0.44c0.02,0.19,0.02,0.38,0,0.57v1.97
			c0,0.28-0.08,0.36-0.33,0.36H44.1c-0.21-0.04-0.42,0.1-0.47,0.31c-0.73,1.9-1.9,3.61-3.41,4.97c-0.55,0.5-1.13,0.97-1.74,1.4
			c-0.65,0.37-1.28,0.76-1.95,1.07c-1.23,0.55-2.51,0.96-3.84,1.22c-1.25,0.22-2.53,0.33-3.8,0.31H17.61L17.62,44.43L17.62,44.43z"
			/>
	</g>
</g>
<g id="ico-USDC-60x60">
</g>
<g id="ico-share-80x80">
</g>
<g id="ico-fantom-clean-60x60">
</g>
<g id="ico-binance-clean-60x60">
</g>
<g id="ico-weth-clean-60x60">
</g>
<g id="ico-ethereum-clean-60x60">
</g>
<g id="ico-clock-32x32">
</g>
<g id="ico-nftquantity-60x60">
</g>
<g id="ico-transfer-56x56">
</g>
<g id="ico-auctionbid-56x56">
</g>
<g id="ico-watchlist-grey-48x48">
</g>
<g id="ico-watchlist-pink-48x48">
</g>
<g id="ico-refresh-80x80">
</g>
<g id="ico-backtotop-80x80">
</g>
<g id="ico-profile-160x160">
</g>
<g id="ico-wallet-56x56">
</g>
<g id="ico-bid-60x60">
</g>
<g id="ico-cancel-60x60">
</g>
<g id="ico-unlocked-60x60">
</g>
<g id="ico-locked-60x60">
</g>
<g id="ico-minted-60x60">
</g>
<g id="ico-transfer-60x60">
</g>
<g id="ico-sale-60x60">
</g>
<g id="ico-listed-60x60">
</g>
<g id="ico-information-28x28">
</g>
<g id="ico-verified-80x80">
</g>
<g id="ico-ethereum-60x60">
</g>
<g id="ico-weth-60x60">
</g>
<g id="ico-search-32x32">
</g>
<g id="ico-close-grey-24x24">
</g>
<g id="ico-close-white-24x24">
</g>
<g id="ico-twitter-80x80">
</g>
<g id="ico-ellipsis-80x80">
</g>
<g id="ico-discord-80x80">
</g>
<g id="ico-medium-80x80">
</g>
<g id="ico-settings-34x34">
</g>
<g id="ico-share-link-60x60">
</g>
<g id="ico-error-56x56">
</g>
<g id="ico-success-56x56">
</g>
<g id="ico-ethtoweth-80x80_00000046338451878051694550000006308651043223325825_">
</g>
<g id="ico-info-56x56">
</g>
<g id="ico-ethtoweth-80x80">
</g>
<g id="ico-binance-60x60">
</g>
<g id="ico-fantom-60x60">
</g>
<g id="ico-blockchain-60x60">
</g>
<g id="ico-mobile-hamburger-80x80">
</g>
<g id="ico-mobile-search-80x80">
</g>
<g id="ico-share-fb-60x60">
</g>
<g id="ico-share-telegram-60x60">
</g>
<g id="ico-share-email-60x60">
</g>
<g id="ico-share-link-60x60_00000053544304605215854160000004057320576619506324_">
</g>
<g id="ico-share-twitter-60x60">
</g>
<g id="ico-favourite-pink-32x32">
</g>
<g id="ico-favourite-grey-32x32">
</g>
</svg>
