<?xml version="1.0" encoding="utf-8"?>
<!-- Generator: Adobe Illustrator 26.0.2, SVG Export Plug-In . SVG Version: 6.00 Build 0)  -->
<svg version="1.1" xmlns="http://www.w3.org/2000/svg" xmlns:xlink="http://www.w3.org/1999/xlink" x="0px" y="0px"
	 viewBox="0 0 60 60" style="enable-background:new 0 0 60 60;" xml:space="preserve">
<style type="text/css">
	.st0{fill:#1D1D1D;}
	.st1{fill:#4C4C4C;}
	.st2{fill:#F5AC37;}
	.st3{fill:#FEFEFD;}
	.st4{fill:#2775CA;}
	.st5{fill:#FFFFFF;}
	.st6{fill:#52D9F6;}
	.st7{fill:#F3BA2F;}
	.st8{fill:#D99EBB;}
	.st9{fill:#CB79A1;}
	.st10{fill:#C05C8C;}
	.st11{fill:#7986CB;}
	.st12{fill:#5C6BC0;}
	.st13{fill:#9EA7D9;}
	.st14{fill:none;stroke:#4C4C4C;stroke-width:4;stroke-miterlimit:10;}
	.st15{fill:#40E55B;}
	.st16{fill:none;stroke:#40E55B;stroke-width:8;stroke-miterlimit:10;}
	.st17{fill:#E5409D;}
	.st18{fill:none;stroke:#E5409D;stroke-width:1.7143;stroke-miterlimit:10;}
	.st19{fill:#6A6A6A;}
	.st20{fill:none;stroke:#52D9F6;stroke-width:0.5163;stroke-miterlimit:10;}
	.st21{fill:none;stroke:#52D9F6;stroke-width:4;stroke-miterlimit:10;}
	.st22{fill:none;}
	.st23{fill:#00FF00;}
	.st24{fill:none;stroke:#1D1D1D;stroke-width:2.7081;stroke-miterlimit:10;}
	.st25{fill:#3896EF;}
	.st26{fill:#FEFEFE;}
	.st27{fill:none;stroke:#52D9F6;stroke-width:6.6667;stroke-linecap:round;stroke-linejoin:round;stroke-miterlimit:10;}
	.st28{fill:#E55F40;}
	.st29{fill:none;stroke:#4C4C4C;stroke-width:8;stroke-miterlimit:10;}
	.st30{clip-path:url(#SVGID_00000126294533542849008240000011565898848450896049_);fill:#4C4C4C;}
	.st31{fill:none;stroke:#F3BA2F;stroke-width:2.2;stroke-linecap:round;stroke-linejoin:round;stroke-miterlimit:10;}
	.st32{fill:none;stroke:#F3BA2F;stroke-width:1.7;stroke-linejoin:round;stroke-miterlimit:10;}
	.st33{fill:none;stroke:#FFFFFF;stroke-width:2.2;stroke-linecap:round;stroke-linejoin:round;stroke-miterlimit:10;}
	.st34{fill:none;stroke:#FFFFFF;stroke-width:1.7;stroke-linejoin:round;stroke-miterlimit:10;}
	.st35{fill:none;stroke:#FFFFFF;stroke-width:4;stroke-miterlimit:10;}
	.st36{opacity:0.5;fill:#1D1D1D;}
	.st37{fill:#83EDCE;}
	.st38{fill:#B0F3DF;}
	.st39{fill:#BCF5E4;}
	.st40{fill:#C1F6E6;}
	.st41{fill:#D3F8ED;}
	.st42{fill:none;stroke:#E5409D;stroke-width:4;stroke-linecap:round;stroke-linejoin:round;stroke-miterlimit:10;}
	.st43{fill:none;stroke:#6A6A6A;stroke-width:4;stroke-linecap:round;stroke-linejoin:round;stroke-miterlimit:10;}
</style>
<g id="ico-DAI-60x60">
</g>
<g id="ico-USDC-60x60">
	<g>
		<circle class="st0" cx="30" cy="30" r="28"/>
		<g>
			<path class="st1" d="M30,4c14.34,0,26,11.66,26,26S44.34,56,30,56S4,44.34,4,30S15.66,4,30,4 M30,0C13.43,0,0,13.43,0,30
				s13.43,30,30,30c16.57,0,30-13.43,30-30S46.57,0,30,0L30,0z"/>
		</g>
	</g>
	<g>
		<path class="st4" d="M37.15,34.12L37.15,34.12c0-3.79-2.27-5.09-6.82-5.63c-3.25-0.43-3.9-1.3-3.9-2.82s1.08-2.49,3.25-2.49
			c1.95,0,3.03,0.65,3.58,2.28c0.11,0.33,0.43,0.54,0.76,0.54h1.73c0.43,0,0.76-0.33,0.76-0.76v-0.11
			c-0.43-2.38-2.38-4.22-4.88-4.44v-2.6c0-0.43-0.33-0.76-0.87-0.87h-1.62c-0.43,0-0.76,0.33-0.87,0.87v2.49
			c-3.25,0.43-5.31,2.6-5.31,5.31c0,3.58,2.17,4.98,6.72,5.53c3.03,0.54,4.01,1.19,4.01,2.92c0,1.73-1.52,2.92-3.57,2.92
			c-2.82,0-3.79-1.19-4.12-2.82c-0.11-0.43-0.43-0.65-0.76-0.65h-1.84c-0.43,0-0.76,0.33-0.76,0.76v0.11
			c0.43,2.71,2.17,4.66,5.74,5.2v2.6c0,0.43,0.32,0.76,0.87,0.87h1.62c0.43,0,0.76-0.33,0.87-0.87v-2.6
			C34.98,39.32,37.15,37.04,37.15,34.12z"/>
		<path class="st4" d="M24.47,45.49c-8.45-3.03-12.78-12.46-9.64-20.8c1.62-4.55,5.2-8.02,9.64-9.64c0.43-0.22,0.65-0.54,0.65-1.08
			v-1.52c0-0.43-0.22-0.76-0.65-0.87c-0.11,0-0.32,0-0.43,0.11C13.75,14.94,8.12,25.88,11.37,36.17
			c1.95,6.07,6.61,10.73,12.68,12.67c0.43,0.22,0.87,0,0.97-0.43c0.11-0.11,0.11-0.22,0.11-0.43v-1.52
			C25.13,46.14,24.8,45.71,24.47,45.49z"/>
		<path class="st4" d="M48.63,24.47c-1.95-6.17-6.72-10.83-12.68-12.78c-0.43-0.22-0.87,0-0.97,0.43c-0.11,0.11-0.11,0.22-0.11,0.43
			v1.52c0,0.43,0.32,0.87,0.65,1.08c8.45,3.03,12.78,12.46,9.64,20.8c-1.62,4.55-5.2,8.02-9.64,9.64c-0.43,0.22-0.65,0.54-0.65,1.08
			v1.52c0,0.43,0.22,0.76,0.65,0.87c0.11,0,0.32,0,0.43-0.11C46.25,45.71,51.88,34.77,48.63,24.47z"/>
	</g>
</g>
<g id="ico-share-80x80">
</g>
<g id="ico-fantom-clean-60x60">
</g>
<g id="ico-binance-clean-60x60">
</g>
<g id="ico-weth-clean-60x60">
</g>
<g id="ico-ethereum-clean-60x60">
</g>
<g id="ico-clock-32x32">
</g>
<g id="ico-nftquantity-60x60">
</g>
<g id="ico-transfer-56x56">
</g>
<g id="ico-auctionbid-56x56">
</g>
<g id="ico-watchlist-grey-48x48">
</g>
<g id="ico-watchlist-pink-48x48">
</g>
<g id="ico-refresh-80x80">
</g>
<g id="ico-backtotop-80x80">
</g>
<g id="ico-profile-160x160">
</g>
<g id="ico-wallet-56x56">
</g>
<g id="ico-bid-60x60">
</g>
<g id="ico-cancel-60x60">
</g>
<g id="ico-unlocked-60x60">
</g>
<g id="ico-locked-60x60">
</g>
<g id="ico-minted-60x60">
</g>
<g id="ico-transfer-60x60">
</g>
<g id="ico-sale-60x60">
</g>
<g id="ico-listed-60x60">
</g>
<g id="ico-information-28x28">
</g>
<g id="ico-verified-80x80">
</g>
<g id="ico-ethereum-60x60">
</g>
<g id="ico-weth-60x60">
</g>
<g id="ico-search-32x32">
</g>
<g id="ico-close-grey-24x24">
</g>
<g id="ico-close-white-24x24">
</g>
<g id="ico-twitter-80x80">
</g>
<g id="ico-ellipsis-80x80">
</g>
<g id="ico-discord-80x80">
</g>
<g id="ico-medium-80x80">
</g>
<g id="ico-settings-34x34">
</g>
<g id="ico-share-link-60x60">
</g>
<g id="ico-error-56x56">
</g>
<g id="ico-success-56x56">
</g>
<g id="ico-ethtoweth-80x80_00000046338451878051694550000006308651043223325825_">
</g>
<g id="ico-info-56x56">
</g>
<g id="ico-ethtoweth-80x80">
</g>
<g id="ico-binance-60x60">
</g>
<g id="ico-fantom-60x60">
</g>
<g id="ico-blockchain-60x60">
</g>
<g id="ico-mobile-hamburger-80x80">
</g>
<g id="ico-mobile-search-80x80">
</g>
<g id="ico-share-fb-60x60">
</g>
<g id="ico-share-telegram-60x60">
</g>
<g id="ico-share-email-60x60">
</g>
<g id="ico-share-link-60x60_00000053544304605215854160000004057320576619506324_">
</g>
<g id="ico-share-twitter-60x60">
</g>
<g id="ico-favourite-pink-32x32">
</g>
<g id="ico-favourite-grey-32x32">
</g>
</svg>
