<svg xmlns="http://www.w3.org/2000/svg" viewBox="0 0 60 60" style="enable-background:new 0 0 60 60" xml:space="preserve">
  <style>
    .st0{fill:#52d9f6}
  </style>
  <g id="ico-cancel-60x60">
    <circle cx="30" cy="30" r="28" style="fill:#1d1d1d"/>
    <path d="M30 4c14.34 0 26 11.66 26 26S44.34 56 30 56 4 44.34 4 30 15.66 4 30 4m0-4C13.43 0 0 13.43 0 30s13.43 30 30 30 30-13.43 30-30S46.57 0 30 0z" style="fill:#4c4c4c"/>
    <g>
      <circle class="st0" cx="30" cy="42" r="4"/>
      <path class="st0" d="M30 34c-1.1 0-2-.9-2-2V16c0-1.1.9-2 2-2s2 .9 2 2v16c0 1.1-.9 2-2 2z"/>
      <circle class="st0" cx="30" cy="18" r="4"/>
      <path class="st0" d="m26.05 18.61 1.97 13.69H30V18.32zM33.95 18.61 31.98 32.3H30V18.32z"/>
    </g>
  </g>
</svg>
