<svg xmlns="http://www.w3.org/2000/svg" viewBox="0 0 60 60" style="enable-background:new 0 0 60 60" xml:space="preserve">
  <g id="ico-listed-60x60">
    <circle cx="30" cy="30" r="28" style="fill:#1d1d1d"/>
    <path d="M30 4c14.34 0 26 11.66 26 26S44.34 56 30 56 4 44.34 4 30 15.66 4 30 4m0-4C13.43 0 0 13.43 0 30s13.43 30 30 30 30-13.43 30-30S46.57 0 30 0z" style="fill:#4c4c4c"/>
    <path d="m32.82 19.12-3.6-.96-5.75-1.54-5.75-1.54c-1.6-.43-3.06 1.04-2.64 2.64l1.54 5.75 2.51 9.35 11.11 11.11a3.64 3.64 0 0 0 5.16 0l8.53-8.53a3.64 3.64 0 0 0 0-5.16L32.82 19.12zm-13.33.37c1.26-1.26 3.3-1.26 4.56 0s1.26 3.3 0 4.56c-1.26 1.26-3.3 1.26-4.56 0s-1.26-3.3 0-4.56z" style="fill:#52d9f6"/>
  </g>
</svg>
