<svg xmlns="http://www.w3.org/2000/svg" viewBox="0 0 60 60" style="enable-background:new 0 0 60 60" xml:space="preserve">
  <style>
    .st0{fill:#52d9f6}
  </style>
  <g id="ico-minted-60x60">
    <circle cx="30" cy="30" r="28" style="fill:#1d1d1d"/>
    <path d="M30 4c14.34 0 26 11.66 26 26S44.34 56 30 56 4 44.34 4 30 15.66 4 30 4m0-4C13.43 0 0 13.43 0 30s13.43 30 30 30 30-13.43 30-30S46.57 0 30 0z" style="fill:#4c4c4c"/>
  </g>
  <g id="ico-ethereum-60x60">
    <path class="st0" d="M26 25.01c0 1.1-.9 2-2 2h-4c-1.1 0-2-.9-2-2s.9-2 2-2h4c1.1 0 2 .9 2 2zM42 25.01c0 1.1-.9 2-2 2h-4c-1.1 0-2-.9-2-2s.9-2 2-2h4c1.1 0 2 .9 2 2zM30 13.01c1.1 0 2 .9 2 2v4c0 1.1-.9 2-2 2s-2-.9-2-2v-4c0-1.1.9-2 2-2zM32.83 27.84c.78-.78 2.05-.78 2.83 0l2.83 2.83c.78.78.78 2.05 0 2.83-.78.78-2.05.78-2.83 0l-2.83-2.83c-.78-.78-.78-2.05 0-2.83zM21.51 16.53c.78-.78 2.05-.78 2.83 0l2.83 2.83c.78.78.78 2.05 0 2.83-.78.78-2.05.78-2.83 0l-2.83-2.83c-.78-.79-.78-2.05 0-2.83z"/>
    <g>
      <path class="st0" d="M32.83 22.18c-.78-.78-.78-2.05 0-2.83l2.83-2.83c.78-.78 2.05-.78 2.83 0 .78.78.78 2.05 0 2.83l-2.83 2.83c-.78.78-2.05.78-2.83 0zM21.51 33.5c-.78-.78-.78-2.05 0-2.83l2.83-2.83c.78-.78 2.05-.78 2.83 0 .78.78.78 2.05 0 2.83l-2.83 2.83c-.78.78-2.04.78-2.83 0z"/>
    </g>
    <path class="st0" d="M30.02 46.99c-1.1 0-2-.9-2-2v-12c0-1.1.9-2 2-2s2 .9 2 2v12a2 2 0 0 1-2 2z"/>
  </g>
</svg>
