<svg xmlns="http://www.w3.org/2000/svg" viewBox="0 0 60 60" style="enable-background:new 0 0 60 60" xml:space="preserve">
  <style>
    .st0{fill:#52d9f6}
  </style>
  <g id="ico-sale-60x60">
    <circle cx="30" cy="30" r="28" style="fill:#1d1d1d"/>
    <path d="M30 4c14.34 0 26 11.66 26 26S44.34 56 30 56 4 44.34 4 30 15.66 4 30 4m0-4C13.43 0 0 13.43 0 30s13.43 30 30 30 30-13.43 30-30S46.57 0 30 0z" style="fill:#4c4c4c"/>
    <g>
      <path class="st0" d="M18.39 36.22c0-.62.51-1.13 1.13-1.13h24.34c.62 0 1.13.51 1.13 1.13 0 .62-.51 1.13-1.13 1.13H19.53c-.63 0-1.14-.5-1.14-1.13zM15 16.99c0-.62.51-1.13 1.13-1.13h6.59c.62 0 1.13.51 1.13 1.13 0 .62-.51 1.13-1.13 1.13h-6.59c-.62 0-1.13-.51-1.13-1.13z"/>
      <path class="st0" d="m27.94 26.21-9.21 9.21c-.44.44-.44 1.16 0 1.6.44.44 1.16.44 1.6 0l7.56-7.56.05-3.25z"/>
      <path class="st0" d="m44.85 22.23-3.02 9.05c-.28.85-1.25 1.55-2.15 1.55H23.71c-.9 0-1.86-.7-2.15-1.55l-3.02-9.05c-.55-1.64.42-2.98 2.15-2.98H42.7c1.73 0 2.69 1.34 2.15 2.98z"/>
      <circle class="st0" cx="24.46" cy="41.88" r="2.26"/>
      <circle class="st0" cx="39.17" cy="41.88" r="2.26"/>
    </g>
  </g>
</svg>
