<svg xmlns="http://www.w3.org/2000/svg" viewBox="0 0 80 80">
    <defs>
        <clipPath id="a">
            <circle cx="40" cy="40" r="40" style="fill:none"/>
        </clipPath>
    </defs>
    <circle cx="40" cy="40" r="39" style="fill:#bfc500"/>
    <path d="M40 2c20.95 0 38 17.05 38 38S60.95 78 40 78 2 60.95 2 40 19.05 2 40 2m0-2C17.91 0 0 17.91 0 40s17.91 40 40 40 40-17.91 40-40S62.09 0 40 0Z"/>
    <path d="M55.72 82H12.49c-.19 0-.38-.08-.57-.12.05-.13.12-.27.16-.4.64-2.57 1.35-5.11 2.66-7.45.27-.48.6-.95.76-1.46.34-1.11.84-2.01 2.09-2.26.04 0 .07-.05.11-.06.88-.4 1.76-.83 2.65-1.2 2.35-.98 4.8-1.76 6.34-4.04.57-.83 1.36-1.51 2.06-2.25.08-.09.2-.23.29-.22.61.07.65-.4.75-.78.19-.72.44-1.44.49-2.17.16-2.43.28-4.87.31-7.31.01-.89-.27-1.78-.42-2.67h-.16l-.72 2.32-.25-.05 1.65-10.73c-.56.15-1.03.37-1.52.4-1.31.08-2.63.08-3.94.09-2.26.02-3.79-1.11-4.64-3.13-.54-1.28-1.03-2.6-1.35-3.95-.17-.69-.08-1.55.18-2.22a41.83 41.83 0 0 1 2.16-4.6c1.54-2.83 5.1-3.07 7.08-.53.42.54.86 1.08 1.17 1.48 2.24-1.53 4.37-3.06 6.59-4.47.68-.43.99-.92 1.04-1.66 0-.12.03-.25.06-.39l.37.31.26-1.59.32 1.02 1.32-2.13.1.07-.14.77 3.02-2 .08.11-.33.7.08.08 1.68-1.36.12.07-.49 1.54 2.87-1.71.06.07-1.02 1.13 3.47-.78.03.14-.45.41.08.08 2.15-.81.05.09-.71.67.05.12 2.8-.33-1.09.91 3.36.51v.11l-2.21.3 2.4 1.56-.05.12-.55-.16-.05.11 1.08.93-.07.1-1.7-.29-.04.12 1.44.77h-1.23c.14.21.21.4.35.51.85.68.83 1.53.56 2.46-.08.28-.13.58-.21.87-.09.37-.19.74-.33 1.29.3-.27.46-.41.62-.54 1.05-.89 2.26-1.32 3.63-1.27 1.03.03 1.87.43 2.27 1.45.26.66.44 1.36.66 2.04v1.27c-.05.16-.11.32-.13.48-.16 1.39-.68 2.67-1.63 3.66-1.43 1.5-2.96 2.9-4.48 4.31-.45.42-1.23.61-1.46 1.1-.24.51 0 1.24.05 1.87.01.21.07.43.04.63-.09.76.21 1.4.53 2.05.89 1.78 1.49 3.65 1.78 5.62.21 1.41.05 2.78-.86 3.93-1.07 1.36-2.44 2.3-4.12 2.83-2.67.84-5.39.83-8.13.64l-1.38-.09c-.18 1.69.06 3.25.71 4.73.15.33.48.62.78.84 1.03.74 2.15 1.37 3.13 2.17.76.62 1.53 1.12 2.48 1.44 1.03.34 1.99.92 2.97 1.42.5.26.81.59 1.01 1.23 1.16 3.65 2.02 7.35 2.34 11.18Z"
          style="clip-path:url(#a)"/>
</svg>
