<svg xmlns="http://www.w3.org/2000/svg" viewBox="0 0 489.997 489.997" style="enable-background:new 0 0 489.997 489.997"
     xml:space="preserve">
    <path fill="white" d="M479.572 52.975H10.425C4.667 52.975 0 57.643 0 63.401v363.196c0 5.757 4.667 10.425 10.425 10.425h469.146c5.757 0 10.426-4.668 10.426-10.425V63.401c0-5.758-4.668-10.426-10.425-10.426zm-10.426 269.357H391.81c-42.643 0-77.335-34.692-77.335-77.336 0-42.638 34.692-77.33 77.335-77.33h77.336v154.666zm-448.295 93.84V73.826h448.295v72.989H391.81c-54.138 0-98.186 44.043-98.186 98.181 0 54.139 44.048 98.187 98.186 98.187h77.336v72.989H20.851z"/>
    <path fill="white" d="M351.295 244.996c0 22.343 18.174 40.517 40.515 40.517 22.343 0 40.516-18.174 40.516-40.517 0-22.336-18.173-40.51-40.516-40.51-22.342-.001-40.515 18.173-40.515 40.51zm40.515-19.66c10.844 0 19.665 8.817 19.665 19.659 0 10.844-8.821 19.666-19.665 19.666-10.842 0-19.664-8.822-19.664-19.666 0-10.842 8.822-19.659 19.664-19.659z"/>
</svg>
