<?xml version="1.0" encoding="utf-8"?>
<!-- Generator: Adobe Illustrator 26.0.2, SVG Export Plug-In . SVG Version: 6.00 Build 0)  -->
<svg version="1.1" xmlns="http://www.w3.org/2000/svg" xmlns:xlink="http://www.w3.org/1999/xlink" x="0px" y="0px"
	 viewBox="0 0 60 60" style="enable-background:new 0 0 60 60;" xml:space="preserve">
<style type="text/css">
	.st4{fill:#1D1D1D;}
	.st26{fill:#F3BA2F;}
</style>
<g id="ico-binance-60x60">
	<g>
		<circle class="st4" cx="30" cy="30" r="28"/>
	</g>
</g>
<g id="ico-blockchain-60x60">
	<path id="binancedex_00000096037445689364239200000002615050786837175218_" class="st26" d="M33.85,43.22v4.48L29.94,50l-3.79-2.3
		v-4.48l3.79,2.3L33.85,43.22z M12.93,27.7l3.79,2.3v7.7l6.55,3.91v4.48L12.93,40V27.7z M46.95,27.7V40l-10.46,6.09v-4.48l6.55-3.91
		V30L46.95,27.7z M36.49,21.61l3.91,2.3l0,0v4.48l-6.55,3.91v7.82l-3.79,2.3l-3.79-2.3V32.3l-6.78-3.91v-4.48l3.91-2.3l6.55,3.91
		L36.49,21.61z M19.48,31.61l3.79,2.3v4.48l-3.79-2.3V31.61z M40.4,31.61v4.48l-3.79,2.3v-4.48L40.4,31.61z M16.72,17.7l3.91,2.3
		l-3.91,2.3v4.48l-3.79-2.3V20L16.72,17.7z M43.16,17.7l3.91,2.3v4.48l-3.91,2.3V22.3L39.37,20L43.16,17.7z M29.94,17.7l3.91,2.3
		l-3.91,2.3L26.15,20L29.94,17.7z M29.94,10l10.46,6.09l-3.79,2.3l-6.55-3.91l-6.67,3.91l-3.79-2.3L29.94,10z"/>
</g>
</svg>
