<svg width="24" height="24" viewBox="0 0 24 24" xmlns="http://www.w3.org/2000/svg">
    <path fill-rule="evenodd" clip-rule="evenodd" fill="white"
          d="M5 6C5 5.44772 5.44772 5 6 5H16C16.5523 5 17 5.44772 17 6V7H13H6C5.44772 7 5 6.55228 5 6ZM3 6C3 4.34315 4.34315 3 6 3H16C17.6569 3 19 4.34315 19 6V7.17071C20.1652 7.58254 21 8.69378 21 10V18C21 19.6569 19.6569 21 18 21H6C4.34315 21 3 19.6569 3 18V6ZM18 9C18.5523 9 19 9.44772 19 10V11H14C12.3431 11 11 12.3431 11 14C11 15.6569 12.3431 17 14 17H19V18C19 18.5523 18.5523 19 18 19H6C5.44772 19 5 18.5523 5 18V8.82929C5.31278 8.93985 5.64936 9 6 9H13H18ZM14 13H15V15H14C13.4477 15 13 14.5523 13 14C13 13.4477 13.4477 13 14 13ZM17 15H19V13H17V15Z"
          />
</svg>
