<svg width="96" height="96" viewBox="0 0 96 96" fill="none" xmlns="http://www.w3.org/2000/svg">
<path d="M82.2023 77.5106L86.16 84.24H9.83997L13.96 77.4127V70.9881L19.9652 67.3636L32.3169 46.4517L29.1499 41.2815L18.7001 38.2883L23.2778 31.5589L21.5383 28.6582L15.2043 24.933V18.2907L10.9303 11.76H84.5786L80.6208 18.5955V24.9112L74.6031 28.5331L63.6622 46.5551L68.8851 55.2627L79.0186 58.1607L74.5865 64.7866L76.0098 67.1676L82.1856 70.999L82.2023 77.5106ZM59.8793 78.7515H73.9706V73.3691L69.3928 70.5745H69.0723L65.5891 64.6724L68.1235 60.9444L62.5802 59.2873L54.8229 46.4517L67.6491 25.3303L72.2269 22.5357V17.0472H49.5835V22.5357L53.8616 25.1235L48.1602 35.3713L37.8602 17.0472H23.6191V22.5357L28.1969 25.3303H28.5132L32.3127 31.646L29.6202 35.4747L35.4797 37.2352L35.6379 37.1318L41.1895 46.4517L26.9401 70.5745H26.7819L22.2041 73.3691V78.7515H45.3095V73.3691L40.8774 70.6779L48.1602 57.943L59.8793 78.7515Z" fill="white"/>
</svg>
