<?xml version="1.0" encoding="utf-8"?>
<!-- Generator: Adobe Illustrator 26.0.2, SVG Export Plug-In . SVG Version: 6.00 Build 0)  -->
<svg version="1.1" xmlns="http://www.w3.org/2000/svg" xmlns:xlink="http://www.w3.org/1999/xlink" x="0px" y="0px"
	 viewBox="0 0 60 60" style="enable-background:new 0 0 60 60;" xml:space="preserve">
<style type="text/css">
	.st0{fill:#4C4C4C;}
	.st1{fill:none;stroke:#4C4C4C;stroke-width:4;stroke-miterlimit:10;}
	.st2{fill:#40E55B;}
	.st3{fill:#FFFFFF;}
	.st4{fill:none;stroke:#40E55B;stroke-width:8;stroke-miterlimit:10;}
	.st5{fill:#E5409D;}
	.st6{fill:none;stroke:#E5409D;stroke-width:1.7143;stroke-miterlimit:10;}
	.st7{fill:#6A6A6A;}
	.st8{fill:none;stroke:#52D9F6;stroke-width:0.5163;stroke-miterlimit:10;}
	.st9{fill:#52D9F6;}
	.st10{fill:none;stroke:#52D9F6;stroke-width:4;stroke-miterlimit:10;}
	.st11{fill:#1D1D1D;}
	.st12{fill:none;}
	.st13{fill:#00FF00;}
	.st14{fill:none;stroke:#1D1D1D;stroke-width:2.7081;stroke-miterlimit:10;}
	.st15{fill:#3896EF;}
	.st16{fill:#FEFEFE;}
	.st17{fill:#7986CB;}
	.st18{fill:#5C6BC0;}
	.st19{fill:#9EA7D9;}
	.st20{fill:#D99EBB;}
	.st21{fill:#CB79A1;}
	.st22{fill:#C05C8C;}
	.st23{fill:none;stroke:#52D9F6;stroke-width:6.6667;stroke-linecap:round;stroke-linejoin:round;stroke-miterlimit:10;}
	.st24{fill:#E55F40;}
	.st25{fill:none;stroke:#4C4C4C;stroke-width:8;stroke-miterlimit:10;}
	.st26{clip-path:url(#SVGID_00000155109170161315192760000003601793643381215114_);fill:#4C4C4C;}
	.st27{fill:none;stroke:#F3BA2F;stroke-width:2.2;stroke-linecap:round;stroke-linejoin:round;stroke-miterlimit:10;}
	.st28{fill:none;stroke:#F3BA2F;stroke-width:1.7;stroke-linejoin:round;stroke-miterlimit:10;}
	.st29{fill:none;stroke:#FFFFFF;stroke-width:2.2;stroke-linecap:round;stroke-linejoin:round;stroke-miterlimit:10;}
	.st30{fill:none;stroke:#FFFFFF;stroke-width:1.7;stroke-linejoin:round;stroke-miterlimit:10;}
	.st31{fill:none;stroke:#FFFFFF;stroke-width:4;stroke-miterlimit:10;}
	.st32{fill:#F3BA2F;}
	.st33{opacity:0.5;fill:#1D1D1D;}
	.st34{fill:#83EDCE;}
	.st35{fill:#B0F3DF;}
	.st36{fill:#BCF5E4;}
	.st37{fill:#C1F6E6;}
	.st38{fill:#D3F8ED;}
	.st39{fill:none;stroke:#E5409D;stroke-width:4;stroke-linecap:round;stroke-linejoin:round;stroke-miterlimit:10;}
	.st40{fill:none;stroke:#6A6A6A;stroke-width:4;stroke-linecap:round;stroke-linejoin:round;stroke-miterlimit:10;}
</style>
<g id="ico-clock-32x32">
</g>
<g id="ico-nftquantity-60x60">
</g>
<g id="ico-transfer-56x56">
</g>
<g id="ico-auctionbid-56x56">
</g>
<g id="ico-watchlist-grey-48x48">
</g>
<g id="ico-watchlist-pink-48x48">
</g>
<g id="ico-refresh-80x80">
</g>
<g id="ico-backtotop-80x80">
</g>
<g id="ico-profile-160x160">
</g>
<g id="ico-wallet-56x56">
</g>
<g id="ico-bid-60x60">
</g>
<g id="ico-cancel-60x60">
</g>
<g id="ico-unlocked-60x60">
</g>
<g id="ico-locked-60x60">
</g>
<g id="ico-minted-60x60">
</g>
<g id="ico-transfer-60x60">
</g>
<g id="ico-sale-60x60">
</g>
<g id="ico-listed-60x60">
</g>
<g id="ico-information-28x28">
</g>
<g id="ico-verified-80x80">
</g>
<g id="ico-ethereum-60x60">
</g>
<g id="ico-weth-60x60">
</g>
<g id="ico-search-32x32">
</g>
<g id="ico-close-grey-24x24">
</g>
<g id="ico-close-white-24x24">
</g>
<g id="ico-twitter-80x80">
</g>
<g id="ico-ellipsis-80x80">
</g>
<g id="ico-discord-80x80">
</g>
<g id="ico-medium-80x80">
</g>
<g id="ico-settings-34x34">
</g>
<g id="ico-share-link-60x60">
</g>
<g id="ico-error-56x56">
</g>
<g id="ico-success-56x56">
</g>
<g id="ico-ethtoweth-80x80_00000046338451878051694550000006308651043223325825_">
</g>
<g id="ico-info-56x56">
</g>
<g id="ico-ethtoweth-80x80">
</g>
<g id="ico-binance-60x60">
</g>
<g id="ico-fantom-60x60">
	<g>
		<path class="st3" d="M45.95,13.43c-0.53-1.05-2.42-2.02-2.99-2.29l-0.73,1.53c0.9,0.43,2.02,1.15,2.2,1.51
			c0.37,0.74,0.4,2.12,0.38,2.59l1.7,0.07C46.52,16.64,46.58,14.7,45.95,13.43z"/>
		<path class="st3" d="M43.85,15.78c-0.01-0.06-0.02-0.11-0.04-0.16c-0.01-0.03-0.03-0.06-0.04-0.09c-0.01-0.02-0.01-0.04-0.02-0.05
			c-0.02-0.03-0.05-0.05-0.07-0.08c-0.03-0.05-0.06-0.09-0.09-0.13c-0.02-0.03-0.05-0.05-0.08-0.07c-0.05-0.04-0.09-0.07-0.14-0.1
			c-0.03-0.02-0.05-0.05-0.09-0.07L31.39,9.04c-0.87-0.44-1.92-0.44-2.79,0l-11.89,5.98c-0.03,0.02-0.05,0.05-0.08,0.07
			c-0.05,0.03-0.1,0.06-0.15,0.1c-0.03,0.02-0.05,0.05-0.08,0.07c-0.04,0.04-0.06,0.09-0.09,0.13c-0.02,0.03-0.05,0.05-0.07,0.08
			c-0.01,0.02-0.01,0.04-0.02,0.05c-0.01,0.03-0.03,0.06-0.04,0.09c-0.02,0.05-0.03,0.11-0.04,0.16c-0.01,0.06-0.03,0.11-0.03,0.17
			c0,0.02-0.01,0.03-0.01,0.05v28c0,0.05,0.02,0.1,0.03,0.15c0.01,0.08,0.02,0.16,0.05,0.24c0.02,0.07,0.06,0.12,0.1,0.18
			c0.04,0.06,0.07,0.12,0.12,0.18c0.05,0.06,0.12,0.1,0.18,0.14c0.04,0.03,0.08,0.07,0.13,0.1l11.89,5.98
			c0.44,0.22,0.92,0.33,1.39,0.33s0.96-0.11,1.39-0.33l11.89-5.98c0.05-0.03,0.08-0.07,0.13-0.1c0.06-0.05,0.13-0.09,0.18-0.14
			c0.05-0.05,0.08-0.12,0.12-0.18c0.04-0.06,0.08-0.11,0.1-0.18c0.03-0.08,0.04-0.16,0.05-0.24c0.01-0.05,0.03-0.1,0.03-0.15V16
			c0-0.02-0.01-0.03-0.01-0.05C43.87,15.89,43.86,15.84,43.85,15.78z M19.58,29.96l9.32-5.1v9.79L19.58,29.96z M41.69,28.14
			L32.29,23l9.4-5.14V28.14z M18.31,17.86l9.4,5.14l-9.4,5.14V17.86z M31.1,24.86l9.32,5.1l-9.32,4.69V24.86z M29.6,11
			c0.25-0.13,0.55-0.13,0.81,0l10.02,5.04L30,21.75l-10.42-5.7L29.6,11z M30.4,49c-0.25,0.13-0.55,0.13-0.81,0l-11.28-5.67V31.78
			l11.19,5.63c0.01,0.01,0.03,0.01,0.04,0.02c0.02,0.01,0.04,0.01,0.06,0.02c0.13,0.05,0.26,0.08,0.39,0.08s0.26-0.03,0.39-0.08
			c0.02-0.01,0.04-0.01,0.06-0.02c0.01-0.01,0.03-0.01,0.04-0.02l11.19-5.63v11.54L30.4,49z"/>
		<path class="st3" d="M15.57,45.81c-0.37-0.74-0.4-2.12-0.38-2.59l-1.7-0.07c-0.01,0.22-0.08,2.16,0.56,3.43
			c0.53,1.05,2.42,2.02,2.99,2.29l0.73-1.53C16.87,46.89,15.75,46.16,15.57,45.81z"/>
	</g>
</g>
<g id="ico-blockchain-60x60">
</g>
<g id="ico-mobile-hamburger-80x80">
</g>
<g id="ico-mobile-search-80x80">
</g>
<g id="ico-share-fb-60x60">
</g>
<g id="ico-share-telegram-60x60">
</g>
<g id="ico-share-email-60x60">
</g>
<g id="ico-share-link-60x60_00000053544304605215854160000004057320576619506324_">
</g>
<g id="ico-share-twitter-60x60">
</g>
<g id="ico-favourite-pink-32x32">
</g>
<g id="ico-favourite-grey-32x32">
</g>
</svg>
