<?xml version="1.0" encoding="utf-8"?>
<!-- Generator: Adobe Illustrator 26.0.2, SVG Export Plug-In . SVG Version: 6.00 Build 0)  -->
<svg version="1.1" xmlns="http://www.w3.org/2000/svg" xmlns:xlink="http://www.w3.org/1999/xlink" x="0px" y="0px"
	 viewBox="0 0 60 60" style="enable-background:new 0 0 60 60;" xml:space="preserve">
<style type="text/css">
	.st0{fill:#4C4C4C;}
	.st1{fill:none;stroke:#4C4C4C;stroke-width:4;stroke-miterlimit:10;}
	.st2{fill:#40E55B;}
	.st3{fill:#FFFFFF;}
	.st4{fill:none;stroke:#40E55B;stroke-width:8;stroke-miterlimit:10;}
	.st5{fill:#E5409D;}
	.st6{fill:none;stroke:#E5409D;stroke-width:1.7143;stroke-miterlimit:10;}
	.st7{fill:#6A6A6A;}
	.st8{fill:none;stroke:#52D9F6;stroke-width:0.5163;stroke-miterlimit:10;}
	.st9{fill:#52D9F6;}
	.st10{fill:none;stroke:#52D9F6;stroke-width:4;stroke-miterlimit:10;}
	.st11{fill:#1D1D1D;}
	.st12{fill:none;}
	.st13{fill:#00FF00;}
	.st14{fill:none;stroke:#1D1D1D;stroke-width:2.7081;stroke-miterlimit:10;}
	.st15{fill:#3896EF;}
	.st16{fill:#FEFEFE;}
	.st17{fill:#7986CB;}
	.st18{fill:#5C6BC0;}
	.st19{fill:#9EA7D9;}
	.st20{fill:#D99EBB;}
	.st21{fill:#CB79A1;}
	.st22{fill:#C05C8C;}
	.st23{fill:none;stroke:#52D9F6;stroke-width:6.6667;stroke-linecap:round;stroke-linejoin:round;stroke-miterlimit:10;}
	.st24{fill:#E55F40;}
	.st25{fill:none;stroke:#4C4C4C;stroke-width:8;stroke-miterlimit:10;}
	.st26{clip-path:url(#SVGID_00000179624407221268268090000013045648465899158184_);fill:#4C4C4C;}
	.st27{fill:none;stroke:#FFFFFF;stroke-width:4;stroke-miterlimit:10;}
	.st28{fill:#F3BA2F;}
	.st29{opacity:0.5;fill:#1D1D1D;}
	.st30{fill:#83EDCE;}
	.st31{fill:#B0F3DF;}
	.st32{fill:#BCF5E4;}
	.st33{fill:#C1F6E6;}
	.st34{fill:#D3F8ED;}
	.st35{fill:none;stroke:#E5409D;stroke-width:4;stroke-linecap:round;stroke-linejoin:round;stroke-miterlimit:10;}
	.st36{fill:none;stroke:#6A6A6A;stroke-width:4;stroke-linecap:round;stroke-linejoin:round;stroke-miterlimit:10;}
</style>
<g id="ico-clock-32x32">
</g>
<g id="ico-nftquantity-60x60">
</g>
<g id="ico-transfer-56x56">
</g>
<g id="ico-auctionbid-56x56">
</g>
<g id="ico-watchlist-grey-48x48">
</g>
<g id="ico-watchlist-pink-48x48">
</g>
<g id="ico-refresh-80x80">
</g>
<g id="ico-backtotop-80x80">
</g>
<g id="ico-profile-160x160">
</g>
<g id="ico-wallet-56x56">
</g>
<g id="ico-bid-60x60">
</g>
<g id="ico-cancel-60x60">
</g>
<g id="ico-unlocked-60x60">
</g>
<g id="ico-locked-60x60">
</g>
<g id="ico-minted-60x60">
</g>
<g id="ico-transfer-60x60">
</g>
<g id="ico-sale-60x60">
</g>
<g id="ico-listed-60x60">
</g>
<g id="ico-information-28x28">
</g>
<g id="ico-verified-80x80">
</g>
<g id="ico-ethereum-60x60">
</g>
<g id="ico-weth-60x60">
</g>
<g id="ico-search-32x32">
</g>
<g id="ico-close-grey-24x24">
</g>
<g id="ico-close-white-24x24">
</g>
<g id="ico-twitter-80x80">
</g>
<g id="ico-ellipsis-80x80">
</g>
<g id="ico-discord-80x80">
</g>
<g id="ico-medium-80x80">
</g>
<g id="ico-settings-34x34">
</g>
<g id="ico-share-link-60x60">
</g>
<g id="ico-error-56x56">
</g>
<g id="ico-success-56x56">
</g>
<g id="ico-ethtoweth-80x80_00000046338451878051694550000006308651043223325825_">
</g>
<g id="ico-info-56x56">
</g>
<g id="ico-ethtoweth-80x80">
</g>
<g id="ico-binance-60x60">
</g>
<g id="ico-fantom-60x60">
</g>
<g id="ico-blockchain-60x60">
	<g>
		<polygon class="st28" points="30.06,14.48 36.61,18.39 40.4,16.09 29.94,10 19.6,16.09 23.39,18.39 		"/>
		<polygon class="st28" points="40.4,23.91 36.49,21.61 29.94,25.52 23.39,21.61 19.48,23.91 19.48,28.39 26.26,32.3 26.26,40.11 
			30.06,42.41 33.85,40.11 33.85,32.3 40.4,28.39 		"/>
		<polygon class="st28" points="43.05,37.7 36.49,41.61 36.49,46.09 46.95,40 46.95,27.7 43.05,30 		"/>
		<polygon class="st28" points="43.16,17.7 39.37,20 43.16,22.3 43.16,26.78 47.07,24.48 47.07,20 		"/>
		<polygon class="st28" points="26.15,43.22 26.15,47.7 29.94,50 33.85,47.7 33.85,43.22 29.94,45.52 		"/>
		<polygon class="st28" points="40.4,36.09 40.4,31.61 36.61,33.91 36.61,38.39 		"/>
		<polygon class="st28" points="16.72,22.3 20.63,20 16.72,17.7 12.93,20 12.93,24.48 16.72,26.78 		"/>
		<polygon class="st28" points="19.48,36.09 23.28,38.39 23.28,33.91 19.48,31.61 		"/>
		<polygon class="st28" points="26.15,20 29.94,22.3 33.85,20 29.94,17.7 		"/>
		<polygon class="st28" points="16.72,30 12.93,27.7 12.93,40 23.28,46.09 23.28,41.61 16.72,37.7 		"/>
	</g>
</g>
<g id="ico-mobile-hamburger-80x80">
</g>
<g id="ico-mobile-search-80x80">
</g>
<g id="ico-share-fb-60x60">
</g>
<g id="ico-share-telegram-60x60">
</g>
<g id="ico-share-email-60x60">
</g>
<g id="ico-share-link-60x60_00000053544304605215854160000004057320576619506324_">
</g>
<g id="ico-share-twitter-60x60">
</g>
<g id="ico-favourite-pink-32x32">
</g>
<g id="ico-favourite-grey-32x32">
</g>
</svg>
