<svg version="1.1" xmlns="http://www.w3.org/2000/svg" xmlns:xlink="http://www.w3.org/1999/xlink" x="0px" y="0px"
	 viewBox="0 0 56 56" style="enable-background:new 0 0 56 56;" xml:space="preserve">
<style type="text/css">
	.st1{fill:#4C4C4C;}
</style>
<g id="ico-wallet-56x56">
	<g>
		<g>
			<path class="st1" d="M48,8v40H8V8H48 M48,0H8C3.58,0,0,3.58,0,8v40c0,4.42,3.58,8,8,8h40c4.42,0,8-3.58,8-8V8
				C56,3.58,52.42,0,48,0L48,0z"/>
		</g>
		<g>
			<path class="st1" d="M47.76,18c2.57,0,4.67,2.09,4.67,4.66v10.67c0,2.57-2.09,4.66-4.67,4.66H32.24c-2.57,0-4.66-2.09-4.66-4.66
				V22.66c0-2.57,2.09-4.66,4.66-4.66H47.76 M47.76,14H32.24c-4.79,0-8.66,3.88-8.66,8.66v10.67c0,4.79,3.88,8.66,8.66,8.66h15.52
				c4.79,0,8.67-3.88,8.67-8.66V22.66C56.42,17.88,52.54,14,47.76,14L47.76,14z"/>
		</g>
		<g>
			<path class="st1" d="M38,24c-2.21,0-4,1.79-4,4s1.79,4,4,4c2.21,0,4-1.79,4-4S40.21,24,38,24L38,24z"/>
		</g>
	</g>
</g>
</svg>
