<?xml version="1.0" encoding="utf-8"?>
<!-- Generator: Adobe Illustrator 26.0.2, SVG Export Plug-In . SVG Version: 6.00 Build 0)  -->
<svg version="1.1" xmlns="http://www.w3.org/2000/svg" xmlns:xlink="http://www.w3.org/1999/xlink" x="0px" y="0px"
	 viewBox="0 0 34 34" style="enable-background:new 0 0 34 34;" xml:space="preserve">
<style type="text/css">
	.st0{fill:#40E5B4;}
	.st1{fill:#3896EF;}
	.st2{fill:#FEFEFE;}
	.st3{fill:#6B8CEF;}
	.st4{fill:#1D1D1D;}
	.st5{fill:#4C4C4C;}
	.st6{fill:#7986CB;}
	.st7{fill:#5C6BC0;}
	.st8{fill:#9EA7D9;}
	.st9{fill:#D99EBB;}
	.st10{fill:#CB79A1;}
	.st11{fill:#C05C8C;}
	.st12{fill:#6A6A6A;}
	.st13{fill:#FFFFFF;}
	.st14{fill:#40E3B2;}
	.st15{fill:#83EDCE;}
	.st16{fill:#B0F3DF;}
	.st17{fill:#BCF5E4;}
	.st18{fill:#C1F6E6;}
	.st19{fill:#D3F8ED;}
	.st20{fill:none;stroke:#40E3B2;stroke-width:6.6667;stroke-linecap:round;stroke-linejoin:round;stroke-miterlimit:10;}
	.st21{fill:#E55F40;}
	.st22{fill:#40E55B;}
	.st23{fill:none;stroke:#40E55B;stroke-width:8;stroke-miterlimit:10;}
	.st24{fill:none;stroke:#4C4C4C;stroke-width:8;stroke-miterlimit:10;}
	.st25{fill:none;stroke:#40E3B2;stroke-width:4;stroke-miterlimit:10;}
	.st26{fill:#F3BA2F;}
	.st27{clip-path:url(#SVGID_00000022535852425758579300000012074988243888002958_);}
	.st28{fill:none;}
	.st29{fill:none;stroke:#FFFFFF;stroke-width:4;stroke-miterlimit:10;}
	.st30{opacity:0.5;fill:#1D1D1D;}
	.st31{fill:none;stroke:#E5409D;stroke-width:4;stroke-linecap:round;stroke-linejoin:round;stroke-miterlimit:10;}
	.st32{fill:none;stroke:#6A6A6A;stroke-width:4;stroke-linecap:round;stroke-linejoin:round;stroke-miterlimit:10;}
</style>
<g id="ico-information-28x28">
</g>
<g id="ico-verified-80x80">
</g>
<g id="ico-ethereum-60x60">
</g>
<g id="ico-weth-60x60">
</g>
<g id="ico-search-32x32">
</g>
<g id="ico-close-grey-24x24">
</g>
<g id="ico-close-white-24x24">
</g>
<g id="ico-twitter-80x80">
</g>
<g id="ico-ellipsis-80x80">
</g>
<g id="ico-discord-80x80">
</g>
<g id="ico-medium-80x80">
</g>
<g id="ico-settings-34x34">
	<g>
		<circle class="st20" cx="17" cy="17" r="10"/>
		<g>
			<path class="st14" d="M20.98,0.4C20.94,0.17,20.74,0,20.5,0H17h-3.5c-0.23,0-0.44,0.17-0.48,0.4l-0.7,4.04
				C12.27,4.73,12.5,5,12.8,5h3.72C16.78,5,17,4.78,17,4.52C17,4.78,17.22,5,17.48,5h3.72c0.3,0,0.53-0.27,0.48-0.56L20.98,0.4z"/>
			<path class="st14" d="M13.02,33.6c0.04,0.23,0.24,0.4,0.48,0.4H17h3.5c0.23,0,0.44-0.17,0.48-0.4l0.7-4.04
				C21.73,29.27,21.5,29,21.2,29h-3.72C17.22,29,17,29.22,17,29.48c0-0.27-0.22-0.48-0.48-0.48H12.8c-0.3,0-0.53,0.27-0.48,0.56
				L13.02,33.6z"/>
		</g>
		<g>
			<path class="st14" d="M4.61,5.26C4.39,5.17,4.15,5.26,4.03,5.47L2.28,8.5l-1.75,3.03c-0.12,0.2-0.07,0.46,0.11,0.61l3.14,2.62
				c0.23,0.19,0.58,0.13,0.73-0.13l1.86-3.22c0.13-0.23,0.05-0.53-0.18-0.66c0.23,0.13,0.53,0.05,0.66-0.18l1.86-3.22
				C8.86,7.1,8.74,6.77,8.46,6.67L4.61,5.26z"/>
			<path class="st14" d="M29.39,28.74c0.22,0.08,0.47-0.01,0.58-0.21l1.75-3.03l1.75-3.03c0.12-0.2,0.07-0.46-0.11-0.61l-3.14-2.62
				c-0.23-0.19-0.58-0.13-0.73,0.13l-1.86,3.22c-0.13,0.23-0.05,0.53,0.18,0.66c-0.23-0.13-0.53-0.05-0.66,0.18l-1.86,3.22
				c-0.15,0.26-0.03,0.59,0.25,0.69L29.39,28.74z"/>
		</g>
		<g>
			<path class="st14" d="M0.64,21.86c-0.18,0.15-0.23,0.41-0.11,0.61l1.75,3.03l1.75,3.03c0.12,0.2,0.36,0.29,0.58,0.21l3.84-1.41
				c0.28-0.1,0.4-0.43,0.25-0.69l-1.86-3.22c-0.13-0.23-0.43-0.31-0.66-0.18c0.23-0.13,0.31-0.43,0.18-0.66l-1.86-3.22
				c-0.15-0.26-0.5-0.32-0.73-0.13L0.64,21.86z"/>
			<path class="st14" d="M33.36,12.14c0.18-0.15,0.23-0.41,0.11-0.61L31.72,8.5l-1.75-3.03c-0.12-0.2-0.36-0.29-0.58-0.21
				l-3.84,1.41c-0.28,0.1-0.4,0.43-0.25,0.69l1.86,3.22c0.13,0.23,0.43,0.31,0.66,0.18c-0.23,0.13-0.31,0.43-0.18,0.66l1.86,3.22
				c0.15,0.26,0.5,0.32,0.73,0.13L33.36,12.14z"/>
		</g>
	</g>
</g>
<g id="ico-share-link-60x60">
</g>
<g id="ico-error-56x56">
</g>
<g id="ico-success-56x56">
</g>
<g id="ico-convert-56x56">
</g>
<g id="ico-info-56x56">
</g>
<g id="ico-ethtoweth-80x80">
</g>
<g id="ico-binance-60x60">
</g>
<g id="ico-fantom-60x60">
</g>
<g id="ico-blockchain-60x60">
</g>
<g id="ico-mobile-hamburger-80x80">
</g>
<g id="ico-mobile-search-80x80">
</g>
<g id="ico-share-fb-60x60">
</g>
<g id="ico-share-telegram-60x60">
</g>
<g id="ico-share-email-60x60">
</g>
<g id="ico-share-link-60x60_00000053544304605215854160000004057320576619506324_">
</g>
<g id="ico-share-twitter-60x60">
</g>
<g id="ico-favourite-pink-32x32">
</g>
<g id="ico-favourite-grey-32x32">
</g>
</svg>
