<svg width="24" height="24" viewBox="0 0 24 24" fill="none" xmlns="http://www.w3.org/2000/svg">
<g clip-path="url(#clip0_194_4048)">
<path d="M18.2378 6.1168C17.0905 5.59039 15.8602 5.20255 14.5739 4.98042C14.5505 4.97614 14.5271 4.98685 14.515 5.00828C14.3568 5.28969 14.1815 5.65681 14.0588 5.94537C12.6753 5.73824 11.2989 5.73824 9.94374 5.94537C9.82099 5.6504 9.63936 5.28969 9.48043 5.00828C9.46836 4.98757 9.44496 4.97685 9.42154 4.98042C8.13593 5.20184 6.90567 5.58968 5.7577 6.1168C5.74776 6.12109 5.73924 6.12824 5.73359 6.13751C3.40004 9.62379 2.76079 13.0244 3.07439 16.3828C3.0758 16.3992 3.08503 16.4149 3.0978 16.4249C4.63741 17.5556 6.12878 18.242 7.59246 18.697C7.61588 18.7041 7.6407 18.6955 7.65561 18.6762C8.00184 18.2034 8.31048 17.7049 8.57511 17.1806C8.59072 17.1499 8.57582 17.1135 8.5439 17.1013C8.05435 16.9156 7.5882 16.6892 7.1398 16.4321C7.10433 16.4114 7.10149 16.3606 7.13412 16.3363C7.22848 16.2656 7.32286 16.1921 7.41297 16.1178C7.42927 16.1042 7.45198 16.1014 7.47115 16.1099C10.417 17.4549 13.6062 17.4549 16.5172 16.1099C16.5364 16.1006 16.5591 16.1035 16.5761 16.1171C16.6662 16.1914 16.7606 16.2656 16.8557 16.3363C16.8883 16.3606 16.8862 16.4114 16.8507 16.4321C16.4023 16.6942 15.9361 16.9156 15.4459 17.1006C15.414 17.1128 15.3998 17.1499 15.4154 17.1806C15.6857 17.7041 15.9943 18.2027 16.3342 18.6755C16.3484 18.6955 16.3739 18.7041 16.3973 18.697C17.8681 18.242 19.3595 17.5556 20.8991 16.4249C20.9126 16.4149 20.9211 16.3999 20.9225 16.3835C21.2978 12.5008 20.2939 9.1281 18.2612 6.13822C18.2562 6.12824 18.2477 6.12109 18.2378 6.1168ZM9.01502 14.3379C8.12812 14.3379 7.39735 13.5236 7.39735 12.5237C7.39735 11.5237 8.11395 10.7095 9.01502 10.7095C9.92315 10.7095 10.6469 11.5308 10.6327 12.5237C10.6327 13.5236 9.91606 14.3379 9.01502 14.3379ZM14.9961 14.3379C14.1092 14.3379 13.3784 13.5236 13.3784 12.5237C13.3784 11.5237 14.095 10.7095 14.9961 10.7095C15.9042 10.7095 16.6279 11.5308 16.6137 12.5237C16.6137 13.5236 15.9042 14.3379 14.9961 14.3379Z" fill="#898989"/>
</g>
<defs>
<clipPath id="clip0_194_4048">
<rect width="24" height="24" fill="white"/>
</clipPath>
</defs>
</svg>
