<svg xmlns="http://www.w3.org/2000/svg" viewBox="0 0 60 60"><defs><style>.bh{fill:#898989}</style></defs><g id="ab"><circle cx="30" cy="30" r="28" style="fill:#e5e5e5"/><path class="bh" d="M30 4c14.34 0 26 11.66 26 26S44.34 56 30 56 4 44.34 4 30 15.66 4 30 4m0-4C13.43 0 0 13.43 0 30s13.43 30 30 30 30-13.43 30-30S46.57 0 30 0Z"/><path class="bh" d="M30 4c14.34 0 26 11.66 26 26S44.34 56 30 56 4 44.34 4 30 15.66 4 30 4m0-4C13.43 0 0 13.43 0 30s13.43 30 30 30 30-13.43 30-30S46.57 0 30 0Z"/><g><path d="M43.87 35.09H22.26l2.26-2.26h15.16c.9 0 1.86-.7 2.15-1.55l3.02-9.05c.55-1.64-.42-2.98-2.15-2.98H20.69c-1.73 0-2.69 1.34-2.15 2.98l3.02 9.05c.1.29.28.56.51.8l-3.34 3.34c-.1.1-.19.23-.24.37-.06.14-.08.28-.09.43v.02c0 .14.03.29.09.42.11.28.34.5.61.61.14.06.28.09.43.09h24.34c.62 0 1.13-.51 1.13-1.13s-.51-1.13-1.13-1.13ZM23.86 16.99c0-.62-.51-1.13-1.13-1.13h-6.59c-.62 0-1.13.51-1.13 1.13s.51 1.13 1.13 1.13h6.59c.62 0 1.13-.51 1.13-1.13Z"/><circle cx="24.46" cy="41.88" r="2.26"/><circle cx="39.17" cy="41.88" r="2.26"/></g></g></svg>