<svg xmlns="http://www.w3.org/2000/svg" viewBox="0 0 60 60"><defs><style>.bh{fill:#898989}</style></defs><g id="w"><circle cx="30" cy="30" r="28" style="fill:#e5e5e5"/><path class="bh" d="M30 4c14.34 0 26 11.66 26 26S44.34 56 30 56 4 44.34 4 30 15.66 4 30 4m0-4C13.43 0 0 13.43 0 30s13.43 30 30 30 30-13.43 30-30S46.57 0 30 0Z"/><path class="bh" d="M30 4c14.34 0 26 11.66 26 26S44.34 56 30 56 4 44.34 4 30 15.66 4 30 4m0-4C13.43 0 0 13.43 0 30s13.43 30 30 30 30-13.43 30-30S46.57 0 30 0Z"/><g><circle cx="30" cy="42" r="4"/><path d="m26.05 18.61 1.98 13.69c.15.96.97 1.7 1.97 1.7s1.82-.74 1.97-1.7l1.98-13.69h-.01c.03-.2.06-.4.06-.61 0-2.21-1.79-4-4-4s-4 1.79-4 4c0 .21.03.41.06.61h-.01Z"/></g></g></svg>