<svg xmlns="http://www.w3.org/2000/svg" viewBox="0 0 60 60"><defs><style>.bh{fill:#898989}</style></defs><g id="a`"><circle cx="30" cy="30" r="28" style="fill:#e5e5e5"/><path class="bh" d="M30 4c14.34 0 26 11.66 26 26S44.34 56 30 56 4 44.34 4 30 15.66 4 30 4m0-4C13.43 0 0 13.43 0 30s13.43 30 30 30 30-13.43 30-30S46.57 0 30 0Z"/><path class="bh" d="M30 4c14.34 0 26 11.66 26 26S44.34 56 30 56 4 44.34 4 30 15.66 4 30 4m0-4C13.43 0 0 13.43 0 30s13.43 30 30 30 30-13.43 30-30S46.57 0 30 0Z"/><g><path d="M26 25.01c0-1.1-.9-2-2-2h-4c-1.1 0-2 .9-2 2s.9 2 2 2h4c1.1 0 2-.9 2-2ZM40 23.01h-4c-1.1 0-2 .9-2 2s.9 2 2 2h4c1.1 0 2-.9 2-2s-.9-2-2-2ZM30 21.01c1.1 0 2-.9 2-2v-4c0-1.1-.9-2-2-2s-2 .9-2 2v4c0 1.1.9 2 2 2ZM35.66 27.84c-.78-.78-2.05-.78-2.83 0-.78.78-.78 2.05 0 2.83l2.83 2.83c.78.78 2.05.78 2.83 0 .78-.78.78-2.05 0-2.83l-2.83-2.83ZM24.34 16.53c-.78-.78-2.05-.78-2.83 0-.78.78-.78 2.05 0 2.83l2.83 2.83c.78.78 2.05.78 2.83 0s.78-2.05 0-2.83l-2.83-2.83ZM35.66 22.18l2.83-2.83c.78-.78.78-2.05 0-2.83s-2.05-.78-2.83 0l-2.83 2.83c-.78.78-.78 2.05 0 2.83.78.78 2.05.78 2.83 0ZM24.34 27.84l-2.83 2.83c-.78.78-.78 2.05 0 2.83.78.78 2.05.78 2.83 0l2.83-2.83c.78-.78.78-2.05 0-2.83s-2.05-.78-2.83 0ZM30.02 30.99c-1.1 0-2 .9-2 2v12c0 1.1.9 2 2 2s2-.9 2-2v-12c0-1.1-.9-2-2-2Z"/></g></g></svg>