<svg xmlns="http://www.w3.org/2000/svg" viewBox="0 0 60 60"><defs><style>.bh{fill:#898989}</style></defs><g id="aa"><circle cx="30" cy="30" r="28" style="fill:#e5e5e5"/><path class="bh" d="M30 4c14.34 0 26 11.66 26 26S44.34 56 30 56 4 44.34 4 30 15.66 4 30 4m0-4C13.43 0 0 13.43 0 30s13.43 30 30 30 30-13.43 30-30S46.57 0 30 0Z"/><path class="bh" d="M30 4c14.34 0 26 11.66 26 26S44.34 56 30 56 4 44.34 4 30 15.66 4 30 4m0-4C13.43 0 0 13.43 0 30s13.43 30 30 30 30-13.43 30-30S46.57 0 30 0Z"/><g><path d="m35.08 30.11 11.14-9-11.14-9v7h-21.3v4h21.3v7zM24.92 29.89l-11.14 9 11.14 9v-7h21.3v-4h-21.3v-7z"/></g></g></svg>