<svg xmlns="http://www.w3.org/2000/svg" viewBox="0 0 60 60"><defs><style>.bh{fill:#898989}</style></defs><g id="v"><circle cx="30" cy="30" r="28" style="fill:#e5e5e5"/><path class="bh" d="M30 4c14.34 0 26 11.66 26 26S44.34 56 30 56 4 44.34 4 30 15.66 4 30 4m0-4C13.43 0 0 13.43 0 30s13.43 30 30 30 30-13.43 30-30S46.57 0 30 0Z"/><path class="bh" d="M30 4c14.34 0 26 11.66 26 26S44.34 56 30 56 4 44.34 4 30 15.66 4 30 4m0-4C13.43 0 0 13.43 0 30s13.43 30 30 30 30-13.43 30-30S46.57 0 30 0Z"/><g><path style="fill:none" d="m28.88 23.81-2.96-2.76-1.84 1.98 5.11 4.77 6.88-8.77-2.14-1.67-5.05 6.45z"/><path d="M28 34.83V46c0 1.1.9 2 2 2s2-.9 2-2V34.83c-.65.1-1.32.17-2 .17s-1.35-.07-2-.17ZM30 12c-5.52 0-10 4.48-10 10s4.48 10 10 10 10-4.48 10-10-4.48-10-10-10Zm-.81 15.8-5.12-4.76 1.85-1.98 2.96 2.75 5.05-6.44 2.13 1.67-6.87 8.76Z"/></g></g></svg>