<svg width="24" height="24" viewBox="0 0 24 24" fill="none" xmlns="http://www.w3.org/2000/svg">
<path d="M8.66262 19.3125C15.4534 19.3125 19.1687 13.6851 19.1687 8.80646C19.1687 8.64825 19.1652 8.48653 19.1582 8.32833C19.8809 7.80566 20.5046 7.15825 21 6.41653C20.3269 6.71601 19.6122 6.9116 18.8804 6.99661C19.651 6.53474 20.2279 5.80917 20.5043 4.95439C19.7794 5.38398 18.9867 5.68702 18.1601 5.85052C17.6031 5.25873 16.8667 4.8669 16.0648 4.7356C15.2628 4.6043 14.4399 4.74085 13.7233 5.12413C13.0067 5.50742 12.4363 6.11609 12.1004 6.85604C11.7644 7.596 11.6816 8.42602 11.8646 9.21778C10.3969 9.14413 8.96095 8.76284 7.64999 8.09863C6.33902 7.43443 5.18227 6.50214 4.25473 5.3622C3.7833 6.17499 3.63904 7.1368 3.85127 8.05213C4.0635 8.96746 4.6163 9.76765 5.3973 10.2901C4.81097 10.2714 4.23748 10.1136 3.72422 9.8295V9.87521C3.72369 10.7282 4.01857 11.555 4.55873 12.2151C5.09889 12.8753 5.85099 13.328 6.68719 13.4963C6.14404 13.6449 5.57399 13.6666 5.02113 13.5596C5.25709 14.2931 5.71618 14.9347 6.33433 15.3948C6.95248 15.8549 7.69884 16.1105 8.46926 16.126C7.16132 17.1534 5.54563 17.7107 3.88242 17.708C3.58747 17.7076 3.2928 17.6895 3 17.6539C4.68964 18.7379 6.65515 19.3136 8.66262 19.3125Z" fill="#898989"/>
</svg>
