<svg width="24" height="24" viewBox="0 0 24 24" fill="none" xmlns="http://www.w3.org/2000/svg">
<path fill-rule="evenodd" clip-rule="evenodd" d="M8.05494 13C8.32017 15.3989 9.52827 17.5137 11.3004 18.9655C8.09379 18.6473 5.52363 16.1652 5.07089 13H8.05494ZM10.0708 13C10.2862 14.5072 10.9816 15.8602 12 16.8991C13.0184 15.8602 13.7137 14.5072 13.9292 13H10.0708ZM13.9292 11H10.0708C10.2862 9.49262 10.9816 8.13957 12 7.10057C13.0185 8.13957 13.7139 9.49262 13.9292 11ZM15.945 13C15.6798 15.399 14.4717 17.5137 12.6995 18.9655C15.9062 18.6473 18.4764 16.1652 18.9291 13H15.945ZM18.9291 11H15.9451C15.68 8.60113 14.472 6.4864 12.7 5.03457C15.9065 5.35293 18.4764 7.83498 18.9291 11ZM8.05491 11H5.07089C5.52361 7.83495 8.09358 5.35289 11.3001 5.03456C9.52803 6.48639 8.32006 8.60112 8.05491 11ZM12 21C16.9706 21 21 16.9706 21 12C21 7.02944 16.9706 3 12 3C7.02944 3 3 7.02944 3 12C3 16.9706 7.02944 21 12 21Z" fill="#898989"/>
</svg>
